<?xml version="1.0" standalone="no"?><!DOCTYPE svg PUBLIC "-//W3C//DTD SVG 1.1//EN" "http://www.w3.org/Graphics/SVG/1.1/DTD/svg11.dtd"><svg class="icon" height="512" viewBox="0 0 1024 1024" version="1.1" xmlns="http://www.w3.org/2000/svg"><path d="M211.4 345.8c0.2 1.4 0.2 3 0.4 4.4 10 112.4 75.8 199.4 155.4 199.4 80.8 0 147.2-89.2 155.8-203.8 1.2-8.2 1.8-16.6 1.8-25.2 0-8.6-0.6-17-1.8-25.2-11.4-79.8-76.8-140.8-155.8-140.8s-144.4 61-155.8 140.8c-1.2 8.2-1.8 16.6-1.8 25.2 0 3.4 0.2 7 0.4 10.4 0.2 5 0.8 10 1.4 14.8z m169 174.8c-4.2 0.6-8.4 1-12.6 1h-1c4.6 0 9-0.4 13.6-1z" fill="" /><path d="M892.6 82.2H676.4c-31.6 0-57.4 5.6-57.4 37.2V538.2c0 15.8 22 23.2 136.4 86.4v112.8c0 8.8 7.2 16 16 16h8.2v162.4h-90.4l-56.2 0.2c24.8-20.8 39.4-56 39.4-114.8 0-137.6-80.2-250.8-182.8-263-0.8 48.2-122.2 147-122.2 147S246 586.2 245.2 538.2c-102.6 12.2-183 125.4-183 263 0 145.2 89.4 145.6 199.8 145.6h198.6l-0.6 0.2h324.2c14.8 0 26.8-12 26.8-26.6v-167h8.2c8.8 0 16-7.2 16-16v-112.8c114.4-63.6 114.4-70.4 114.4-86.2V119.4c0.4-31.6-25.4-37.2-57-37.2z m26 456c-15 10.2-63.6 39.4-100.4 60.2h-44.6c-36.8-20.6-111.4-57.8-126.2-68V448.2c23-8 93.4-19.4 122 3.2 25 19.8 54.8 31.4 85.2 31.4 5 0 9.8-0.2 14.8-0.8 9.6-1 40.8-3.2 49.2-6.4V538.2z m3-358.8H728c-7.4 0.4-13.4 6.4-13.4 14s6 13.6 13.4 14h193.6v48h-128c-2.6 0-4.8 0.6-7 1.8-4.2 2.4-7 7-7 12.2 0 7 5 12.6 11.6 13.8 0.8 0.2 1.6 0.2 2.4 0.2h128v48h-193c-1.2-0.2-2.4 0-3.6 0.4-6 1.6-10.4 7-10.4 13.6 0 7.8 6.2 14 14 14h193v82.6c-8 5.8-44.4 9.8-56.6 11.2-14.4 1.6-42.6 1-70.4-21.2-38.2-30.6-114.4-23.4-147-14V117.4c0-2.2 1.8-4 4-4h266c2.2 0 4 1.8 4 4v62z" fill="" /></svg>